PathFileType	4	(X/Y/Z)	Static_1_OpenSim.trc																																																																																																																																								
DataRate	CameraRate	NumFrames	NumMarkers	Units	OrigDataRate	OrigDataStartFrame	OrigNumFrames																																																																																																																																				
100	100	7	46	mm	100	280	559																																																																																																																																				
Frame#	Time	R.Acromium			L.Acromium			Sternum			R.Bicep			L.Bicep			R.Elbow			L.Elbow			R.Wrist.Med			R.Wrist.Lat			L.Wrist.Med			L.Wrist.Lat			R.ASIS			R.PSIS			S2			L.PSIS			L.ASIS			R.TH1			R.TH2			R.TH3			R.Knee			R.SH1			R.SH2			R.SH3			R.SH4			R.Ankle			R.Heel			R.MT5			R.MT1			R.Toe.Tip			L.TH1			L.TH2			L.TH3			L.TH4			L.Knee			L.SH1			L.SH2			L.SH3			L.Ankle			L.Heel			L.MT5			L.MT1			L.Toe.Tip			R.MKnee			R.MAnkle			L.MKnee			L.MAnkle		
		X1	Y1	Z1	X2	Y2	Z2	X3	Y3	Z3	X4	Y4	Z4	X5	Y5	Z5	X6	Y6	Z6	X7	Y7	Z7	X8	Y8	Z8	X9	Y9	Z9	X10	Y10	Z10	X11	Y11	Z11	X12	Y12	Z12	X13	Y13	Z13	X14	Y14	Z14	X15	Y15	Z15	X16	Y16	Z16	X17	Y17	Z17	X18	Y18	Z18	X19	Y19	Z19	X20	Y20	Z20	X21	Y21	Z21	X22	Y22	Z22	X23	Y23	Z23	X24	Y24	Z24	X25	Y25	Z25	X26	Y26	Z26	X27	Y27	Z27	X28	Y28	Z28	X29	Y29	Z29	X30	Y30	Z30	X31	Y31	Z31	X32	Y32	Z32	X33	Y33	Z33	X34	Y34	Z34	X35	Y35	Z35	X36	Y36	Z36	X37	Y37	Z37	X38	Y38	Z38	X39	Y39	Z39	X40	Y40	Z40	X41	Y41	Z41	X42	Y42	Z42	X43	Y43	Z43	X44	Y44	Z44	X45	Y45	Z45	X46	Y46	Z46
																																																																																																																																											
280	2.79	943.345	1484.3251	-323.0374	909.6254	1483.4741	-753.5559	1037.6638	1304.8251	-542.8748	958.3611	1263.1606	-294.8082	928.0331	1260.7898	-781.9161	904.5385	1138.1306	-249.8531	876.0126	1140.9943	-817.5853	1035.252	907.2765	-273.509	984.497	896.4324	-233.7937	1000.9035	913.1934	-802.4296	951.802	905.8836	-842.8784	1004.7001	1015.1212	-425.1384	811.6928	1049.0934	-479.1956	799.9675	1038.3586	-534.1073	802.1861	1046.9959	-604.5282	987.4454	1013.8308	-676.5662	973.1918	766.6985	-342.2714	890.955	766.6943	-338.3464	890.1186	656.7828	-343.3232	918.7397	523.1305	-359.2236	885.8317	408.4976	-328.4642	884.4535	295.5972	-325.6825	809.8962	410.2803	-360.9232	807.4383	297.2673	-351.6591	858.8593	92.0152	-349.1778	809.2623	56.0371	-423.7431	952.2023	32.7449	-297.81	1013.533	37.0868	-391.6011	1050.4502	47.7421	-328.3857	941.0901	774.4001	-748.4804	931.9687	667.6999	-749.1363	856.3749	778.2853	-741.6445	852.5885	668.2347	-734.8593	886.4434	528.7211	-726.999	873.2528	419.9482	-756.6081	792.4908	422.9506	-743.2335	791.2469	312.9787	-742.0383	839.3821	93.085	-737.5181	785.4005	52.7289	-668.025	926.8515	32.3108	-791.9996	990.9359	36.0508	-696.7281	1031.1123	45.676	-765.4537	921.6031	503.1873	-470.3186	895.5492	99.8505	-434.2006	906.5254	502.893	-618.4691	874.2895	105.5011	-654.5171
281	2.8	943.3425	1484.3158	-323.0459	909.647	1483.4605	-753.5242	1037.6063	1304.7878	-542.8599	958.3767	1263.1418	-294.9156	927.9999	1260.7516	-781.9415	904.5171	1138.1536	-249.8539	875.9731	1140.9962	-817.5693	1035.2052	907.2384	-273.5427	984.4554	896.4038	-233.8363	1000.8603	913.1975	-802.3868	951.7473	905.8834	-842.838	1004.6931	1015.1173	-425.1483	811.6837	1049.0717	-479.1208	799.9786	1038.3783	-534.0958	802.2025	1046.9966	-604.5706	987.4448	1013.8201	-676.5491	973.2076	766.7332	-342.2742	890.9233	766.6938	-338.3706	890.0736	656.7878	-343.3313	918.7452	523.1311	-359.2305	885.8275	408.5049	-328.4764	884.4593	295.6084	-325.6826	809.8962	410.285	-360.945	807.4342	297.2531	-351.6224	858.8508	92.0177	-349.195	809.24	56.048	-423.75	952.2223	32.7602	-297.8266	1013.4525	37.7336	-392.1987	1050.4586	47.7487	-328.3967	941.085	774.3618	-748.3358	931.9713	667.6913	-749.1156	856.321	778.2739	-741.611	852.5608	668.2405	-734.7917	886.4531	528.7469	-727.014	873.2408	419.9676	-756.5925	792.4972	422.9707	-743.2351	791.2396	313.0102	-742.053	839.3866	93.0776	-737.5162	785.3784	52.7434	-667.9877	926.824	32.3159	-792.0239	990.9293	36.0534	-696.7283	1031.0981	45.6658	-765.4413	921.5942	503.2461	-470.2983	895.5804	99.8751	-434.1999	906.545	502.9238	-618.4606	874.2526	105.4853	-654.5057
282	2.81	943.3533	1484.3301	-323.0591	909.6671	1483.4592	-753.5195	1037.5746	1304.7382	-542.8633	958.3671	1263.1644	-294.891	928.0105	1260.7913	-781.8837	904.5308	1138.1228	-249.9187	875.8732	1141.0166	-817.5262	1035.1758	907.2344	-273.5916	984.4323	896.4072	-233.8731	1000.8506	913.2142	-802.3577	951.7513	905.9039	-842.8188	1004.665	1015.1244	-425.1318	811.619	1049.1541	-479.2227	799.9355	1038.426	-534.1093	802.1685	1047.0277	-604.5503	987.4126	1013.8283	-676.568	973.1826	766.756	-342.3303	890.9226	766.746	-338.3788	890.076	656.7826	-343.3505	918.7648	523.1585	-359.2931	885.7877	408.4895	-328.5293	884.4632	295.6329	-325.694	809.8999	410.2953	-360.9391	807.4593	297.2726	-351.6341	858.858	92.0047	-349.1893	809.2754	56.0718	-423.7068	952.2294	32.813	-297.824	1013.4412	37.7263	-392.2177	1050.4547	47.7831	-328.3964	940.964	774.441	-748.3795	931.9393	667.7214	-749.0712	856.288	778.3364	-741.6564	852.5821	668.2509	-734.7734	886.4361	528.7711	-727.012	873.2413	419.9894	-756.5747	792.4646	423.0338	-743.263	791.2294	313.0378	-742.0527	839.3918	93.1067	-737.5019	785.3799	52.7584	-668.0071	926.8377	32.3185	-792.0005	990.7815	36.3581	-696.4704	1031.109	45.6634	-765.4539	921.5816	503.2207	-470.3031	895.6005	99.915	-434.1917	906.5347	502.919	-618.4768	874.2258	105.4877	-654.5336
283	2.82	943.3663	1484.3502	-323.0425	909.7333	1483.5129	-753.4657	1037.5791	1304.7004	-542.8738	958.3846	1263.1621	-294.9971	928.0268	1260.8035	-781.8643	904.5432	1138.0862	-249.9724	875.8641	1141.0201	-817.5067	1035.1484	907.2119	-273.6408	984.3903	896.4119	-233.8737	1000.8607	913.2406	-802.312	951.7333	905.9114	-842.8	1004.652	1015.116	-425.1304	811.6465	1049.2241	-479.1555	799.9117	1038.4104	-534.098	802.1537	1047.0283	-604.5569	987.4096	1013.8743	-676.5729	973.1645	766.7415	-342.287	890.9094	766.7612	-338.3831	890.089	656.7903	-343.3791	918.744	523.17	-359.2851	885.8166	408.5047	-328.4748	884.4641	295.6151	-325.6971	809.9207	410.3039	-360.9391	807.4352	297.2678	-351.6957	858.8347	92.0032	-349.2225	809.2454	56.1014	-423.7241	952.2329	32.7893	-297.8359	1013.447	37.7709	-392.2025	1050.4592	47.7944	-328.4066	940.9923	774.5411	-748.4584	931.9791	667.7772	-749.1124	856.2703	778.3671	-741.6376	852.5416	668.2828	-734.7479	886.4495	528.7852	-727.001	873.2635	419.9669	-756.558	792.5053	423.0414	-743.2469	791.2457	313.0513	-742.0431	839.3898	93.0922	-737.5095	785.3996	52.7802	-667.961	926.8483	32.3292	-791.9974	990.8108	36.3877	-696.4816	1031.1036	45.7047	-765.4168	921.5899	503.2344	-470.276	895.5797	99.8801	-434.2007	906.556	502.9209	-618.47	874.2726	105.523	-654.5434
284	2.83	943.3621	1484.3441	-323.0191	909.7322	1483.4908	-753.425	1037.5302	1304.2872	-542.3627	958.3733	1263.106	-294.9622	928.0209	1260.7759	-781.8792	904.4831	1138.0933	-249.9127	875.8591	1141.0281	-817.5111	1035.1198	907.1768	-273.6526	984.372	896.394	-233.9381	1000.8693	913.2284	-802.2817	951.743	905.8741	-842.7764	1004.6609	1015.1116	-425.1265	811.6132	1049.1858	-479.1896	799.9499	1038.4182	-534.095	802.1299	1047.0226	-604.5725	987.4212	1013.8624	-676.5851	973.1658	766.6955	-342.2816	890.8997	766.753	-338.3574	890.0674	656.7796	-343.3739	918.7133	523.154	-359.2816	885.7994	408.4803	-328.4658	884.4782	295.6021	-325.6972	809.9023	410.2888	-360.957	807.4345	297.2826	-351.6032	858.8408	91.9993	-349.2188	809.2437	56.0852	-423.7839	952.2651	32.7565	-297.8337	1013.4511	37.7533	-392.2158	1050.455	47.7969	-328.3643	941.0232	774.517	-748.2879	931.9694	667.8078	-749.1818	856.2319	778.3641	-741.5919	852.5225	668.2988	-734.7468	886.4722	528.7845	-727.0021	873.272	419.9717	-756.5791	792.5155	423.005	-743.2248	791.2603	313.0443	-742.0355	839.4416	93.0998	-737.524	785.4096	52.7865	-667.9926	926.8656	32.3633	-792.0097	990.822	36.3598	-696.4501	1030.9761	45.6319	-765.5198	921.6389	503.2278	-470.335	895.6579	99.9033	-434.2095	906.572	502.9043	-618.4765	874.317	105.5054	-654.5389
285	2.84	943.345	1484.3358	-323.0284	909.6857	1483.4956	-753.4677	1037.5206	1304.2737	-542.3494	958.3585	1263.121	-294.9263	928.0297	1260.7925	-781.8269	904.4902	1138.0776	-249.9487	875.8362	1140.9758	-817.4897	1035.084	907.1784	-273.6839	984.3196	896.3192	-233.9554	1000.844	913.033	-802.3889	951.7473	905.8642	-842.7415	1004.6565	1015.1315	-425.1238	811.6182	1049.1404	-479.171	799.923	1038.3762	-534.1128	802.1452	1047.0066	-604.5244	987.4095	1013.8361	-676.5688	973.1597	766.7275	-342.2888	890.8784	766.7333	-338.3585	890.0951	656.8142	-343.3458	918.6857	523.1196	-359.2619	885.8017	408.495	-328.4706	884.4556	295.6056	-325.6919	809.8588	410.2896	-360.9234	807.4207	297.2711	-351.6154	858.8595	92.0118	-349.2139	809.2704	56.0577	-423.731	952.2474	32.7285	-297.8183	1013.5366	37.1369	-391.5826	1050.458	47.7595	-328.3916	940.8862	774.4598	-748.273	931.9164	667.7523	-749.1177	856.2441	778.3569	-741.6024	852.5216	668.2891	-734.7741	886.4594	528.772	-726.9878	873.2642	419.9662	-756.6099	792.5405	422.983	-743.2312	791.2588	313.0251	-742.0079	839.415	93.0704	-737.5064	785.4095	52.7537	-667.9748	926.8587	32.2974	-792.0137	990.8043	36.3225	-696.4916	1031.0951	45.6848	-765.4019	921.5934	503.2227	-470.2758	895.6213	99.8726	-434.1837	906.5278	502.8837	-618.5107	874.2606	105.4522	-654.5565
286	2.85	943.3646	1484.3384	-322.9835	909.6396	1483.4769	-753.4969	1037.4607	1304.2684	-542.3393	958.374	1263.1363	-294.962	927.9919	1260.7459	-781.8068	904.4815	1138.0892	-249.949	875.8332	1140.9634	-817.4729	1035.0327	907.4052	-273.7111	984.0761	896.2613	-234.1905	1000.8111	912.9899	-802.3912	951.7145	905.856	-842.7351	1004.6257	1015.1792	-425.1385	811.5814	1049.1016	-479.2074	799.8746	1038.3719	-534.147	802.1517	1047.0126	-604.551	987.3998	1013.8484	-676.612	973.2921	766.7511	-342.73	890.874	766.7249	-338.3522	890.0461	656.7749	-343.3499	918.6118	523.1472	-359.1995	885.7389	408.4934	-328.5025	884.4136	295.6278	-325.6711	809.8271	410.2965	-360.9893	807.4115	297.2533	-351.616	858.8724	92.0347	-349.175	809.2644	56.0608	-423.7547	952.2384	32.7501	-297.8184	1013.5471	37.1279	-391.5952	1050.4681	47.745	-328.3794	940.9398	774.4833	-748.4692	931.8701	667.7822	-749.1826	856.1779	778.3378	-741.5776	852.4965	668.2433	-734.7806	886.436	528.7488	-726.9955	873.2286	419.967	-756.5956	792.5019	422.9789	-743.2501	791.2408	312.9945	-742.0288	839.376	93.0745	-737.5131	785.3989	52.7849	-667.9836	926.8487	32.3499	-791.9863	990.9304	36.1019	-696.7373	1030.9654	45.6338	-765.5496	921.566	503.2394	-470.3255	895.6184	99.9224	-434.2231	906.5267	502.8879	-618.4504	874.2461	105.4691	-654.55
